<?xml version="1.0" encoding="utf-8" standalone="no"?>
<!DOCTYPE svg PUBLIC "-//W3C//DTD SVG 1.1//EN"
  "http://www.w3.org/Graphics/SVG/1.1/DTD/svg11.dtd">
<svg xmlns:xlink="http://www.w3.org/1999/xlink" width="648pt" height="360pt" viewBox="0 0 648 360" xmlns="http://www.w3.org/2000/svg" version="1.1">
 <metadata>
  <rdf:RDF xmlns:dc="http://purl.org/dc/elements/1.1/" xmlns:cc="http://creativecommons.org/ns#" xmlns:rdf="http://www.w3.org/1999/02/22-rdf-syntax-ns#">
   <cc:Work>
    <dc:type rdf:resource="http://purl.org/dc/dcmitype/StillImage"/>
    <dc:date>2026-09-07T03:05:04.235630</dc:date>
    <dc:format>image/svg+xml</dc:format>
    <dc:creator>
     <cc:Agent>
      <dc:title>Matplotlib v3.11.1, https://matplotlib.org/</dc:title>
     </cc:Agent>
    </dc:creator>
   </cc:Work>
  </rdf:RDF>
 </metadata>
 <defs>
  <style type="text/css">*{stroke-linejoin: round; stroke-linecap: butt}</style>
 </defs>
 <g id="figure_1">
  <g id="patch_1">
   <path d="M 0 360 
L 648 360 
L 648 0 
L 0 0 
z
" style="fill: #ffffff"/>
  </g>
  <g id="axes_1">
   <g id="patch_2">
    <path d="M 64.522344 317.877656 
L 637.2 317.877656 
L 637.2 10.8 
L 64.522344 10.8 
z
" style="fill: #ffffff"/>
   </g>
   <g id="matplotlib.axis_1">
    <g id="xtick_1">
     <g id="line2d_1">
      <path d="M 64.522344 317.877656 
L 64.522344 10.8 
" clip-path="url(#pefbc7b0693)" style="fill: none; stroke: #b0b0b0; stroke-opacity: 0.25; stroke-width: 0.8; stroke-linecap: square"/>
     </g>
     <g id="line2d_2">
      <defs>
       <path id="m72b3756bd5" d="M 0 0 
L 0 3.5 
" style="stroke: #000000; stroke-width: 0.8"/>
      </defs>
      <g>
       <use xlink:href="#m72b3756bd5" x="64.522344" y="317.877656" style="stroke: #000000; stroke-width: 0.8"/>
      </g>
     </g>
     <g id="text_1">
      <!-- 0 -->
      <g transform="translate(61.341094 332.475312) scale(0.1 -0.1)">
       <defs>
        <path id="DejaVuSans-13" d="M 2034 4250 
Q 1547 4250 1301 3770 
Q 1056 3291 1056 2328 
Q 1056 1369 1301 889 
Q 1547 409 2034 409 
Q 2525 409 2770 889 
Q 3016 1369 3016 2328 
Q 3016 3291 2770 3770 
Q 2525 4250 2034 4250 
z
M 2034 4750 
Q 2819 4750 3233 4129 
Q 3647 3509 3647 2328 
Q 3647 1150 3233 529 
Q 2819 -91 2034 -91 
Q 1250 -91 836 529 
Q 422 1150 422 2328 
Q 422 3509 836 4129 
Q 1250 4750 2034 4750 
z
" transform="scale(0.015625)"/>
       </defs>
       <use xlink:href="#DejaVuSans-13"/>
      </g>
     </g>
    </g>
    <g id="xtick_2">
     <g id="line2d_3">
      <path d="M 185.086061 317.877656 
L 185.086061 10.8 
" clip-path="url(#pefbc7b0693)" style="fill: none; stroke: #b0b0b0; stroke-opacity: 0.25; stroke-width: 0.8; stroke-linecap: square"/>
     </g>
     <g id="line2d_4">
      <g>
       <use xlink:href="#m72b3756bd5" x="185.086061" y="317.877656" style="stroke: #000000; stroke-width: 0.8"/>
      </g>
     </g>
     <g id="text_2">
      <!-- 5 -->
      <g transform="translate(181.904811 332.475312) scale(0.1 -0.1)">
       <defs>
        <path id="DejaVuSans-18" d="M 691 4666 
L 3169 4666 
L 3169 4134 
L 1269 4134 
L 1269 2991 
Q 1406 3038 1543 3061 
Q 1681 3084 1819 3084 
Q 2600 3084 3056 2656 
Q 3513 2228 3513 1497 
Q 3513 744 3044 326 
Q 2575 -91 1722 -91 
Q 1428 -91 1123 -41 
Q 819 9 494 109 
L 494 744 
Q 775 591 1075 516 
Q 1375 441 1709 441 
Q 2250 441 2565 725 
Q 2881 1009 2881 1497 
Q 2881 1984 2565 2268 
Q 2250 2553 1709 2553 
Q 1456 2553 1204 2497 
Q 953 2441 691 2322 
L 691 4666 
z
" transform="scale(0.015625)"/>
       </defs>
       <use xlink:href="#DejaVuSans-18"/>
      </g>
     </g>
    </g>
    <g id="xtick_3">
     <g id="line2d_5">
      <path d="M 305.649778 317.877656 
L 305.649778 10.8 
" clip-path="url(#pefbc7b0693)" style="fill: none; stroke: #b0b0b0; stroke-opacity: 0.25; stroke-width: 0.8; stroke-linecap: square"/>
     </g>
     <g id="line2d_6">
      <g>
       <use xlink:href="#m72b3756bd5" x="305.649778" y="317.877656" style="stroke: #000000; stroke-width: 0.8"/>
      </g>
     </g>
     <g id="text_3">
      <!-- 10 -->
      <g transform="translate(299.287278 332.475312) scale(0.1 -0.1)">
       <defs>
        <path id="DejaVuSans-14" d="M 794 531 
L 1825 531 
L 1825 4091 
L 703 3866 
L 703 4441 
L 1819 4666 
L 2450 4666 
L 2450 531 
L 3481 531 
L 3481 0 
L 794 0 
L 794 531 
z
" transform="scale(0.015625)"/>
       </defs>
       <use xlink:href="#DejaVuSans-14"/>
       <use xlink:href="#DejaVuSans-13" transform="translate(63.625 0)"/>
      </g>
     </g>
    </g>
    <g id="xtick_4">
     <g id="line2d_7">
      <path d="M 426.213495 317.877656 
L 426.213495 10.8 
" clip-path="url(#pefbc7b0693)" style="fill: none; stroke: #b0b0b0; stroke-opacity: 0.25; stroke-width: 0.8; stroke-linecap: square"/>
     </g>
     <g id="line2d_8">
      <g>
       <use xlink:href="#m72b3756bd5" x="426.213495" y="317.877656" style="stroke: #000000; stroke-width: 0.8"/>
      </g>
     </g>
     <g id="text_4">
      <!-- 15 -->
      <g transform="translate(419.850995 332.475312) scale(0.1 -0.1)">
       <use xlink:href="#DejaVuSans-14"/>
       <use xlink:href="#DejaVuSans-18" transform="translate(63.625 0)"/>
      </g>
     </g>
    </g>
    <g id="xtick_5">
     <g id="line2d_9">
      <path d="M 546.777212 317.877656 
L 546.777212 10.8 
" clip-path="url(#pefbc7b0693)" style="fill: none; stroke: #b0b0b0; stroke-opacity: 0.25; stroke-width: 0.8; stroke-linecap: square"/>
     </g>
     <g id="line2d_10">
      <g>
       <use xlink:href="#m72b3756bd5" x="546.777212" y="317.877656" style="stroke: #000000; stroke-width: 0.8"/>
      </g>
     </g>
     <g id="text_5">
      <!-- 20 -->
      <g transform="translate(540.414712 332.475312) scale(0.1 -0.1)">
       <defs>
        <path id="DejaVuSans-15" d="M 1228 531 
L 3431 531 
L 3431 0 
L 469 0 
L 469 531 
Q 828 903 1448 1529 
Q 2069 2156 2228 2338 
Q 2531 2678 2651 2914 
Q 2772 3150 2772 3378 
Q 2772 3750 2511 3984 
Q 2250 4219 1831 4219 
Q 1534 4219 1204 4116 
Q 875 4013 500 3803 
L 500 4441 
Q 881 4594 1212 4672 
Q 1544 4750 1819 4750 
Q 2544 4750 2975 4387 
Q 3406 4025 3406 3419 
Q 3406 3131 3298 2873 
Q 3191 2616 2906 2266 
Q 2828 2175 2409 1742 
Q 1991 1309 1228 531 
z
" transform="scale(0.015625)"/>
       </defs>
       <use xlink:href="#DejaVuSans-15"/>
       <use xlink:href="#DejaVuSans-13" transform="translate(63.625 0)"/>
      </g>
     </g>
    </g>
    <g id="text_6">
     <!-- Hour of day -->
     <g transform="translate(321.622109 346.476094) scale(0.1 -0.1)">
      <defs>
       <path id="DejaVuSans-2b" d="M 628 4666 
L 1259 4666 
L 1259 2753 
L 3553 2753 
L 3553 4666 
L 4184 4666 
L 4184 0 
L 3553 0 
L 3553 2222 
L 1259 2222 
L 1259 0 
L 628 0 
L 628 4666 
z
" transform="scale(0.015625)"/>
       <path id="DejaVuSans-52" d="M 1959 3097 
Q 1497 3097 1228 2736 
Q 959 2375 959 1747 
Q 959 1119 1226 758 
Q 1494 397 1959 397 
Q 2419 397 2687 759 
Q 2956 1122 2956 1747 
Q 2956 2369 2687 2733 
Q 2419 3097 1959 3097 
z
M 1959 3584 
Q 2709 3584 3137 3096 
Q 3566 2609 3566 1747 
Q 3566 888 3137 398 
Q 2709 -91 1959 -91 
Q 1206 -91 779 398 
Q 353 888 353 1747 
Q 353 2609 779 3096 
Q 1206 3584 1959 3584 
z
" transform="scale(0.015625)"/>
       <path id="DejaVuSans-58" d="M 544 1381 
L 544 3500 
L 1119 3500 
L 1119 1403 
Q 1119 906 1312 657 
Q 1506 409 1894 409 
Q 2359 409 2629 706 
Q 2900 1003 2900 1516 
L 2900 3500 
L 3475 3500 
L 3475 0 
L 2900 0 
L 2900 538 
Q 2691 219 2414 64 
Q 2138 -91 1772 -91 
Q 1169 -91 856 284 
Q 544 659 544 1381 
z
M 1991 3584 
L 1991 3584 
z
" transform="scale(0.015625)"/>
       <path id="DejaVuSans-55" d="M 2631 2963 
Q 2534 3019 2420 3045 
Q 2306 3072 2169 3072 
Q 1681 3072 1420 2755 
Q 1159 2438 1159 1844 
L 1159 0 
L 581 0 
L 581 3500 
L 1159 3500 
L 1159 2956 
Q 1341 3275 1631 3429 
Q 1922 3584 2338 3584 
Q 2397 3584 2469 3576 
Q 2541 3569 2628 3553 
L 2631 2963 
z
" transform="scale(0.015625)"/>
       <path id="DejaVuSans-3" transform="scale(0.015625)"/>
       <path id="DejaVuSans-49" d="M 2375 4863 
L 2375 4384 
L 1825 4384 
Q 1516 4384 1395 4259 
Q 1275 4134 1275 3809 
L 1275 3500 
L 2222 3500 
L 2222 3053 
L 1275 3053 
L 1275 0 
L 697 0 
L 697 3053 
L 147 3053 
L 147 3500 
L 697 3500 
L 697 3744 
Q 697 4328 969 4595 
Q 1241 4863 1831 4863 
L 2375 4863 
z
" transform="scale(0.015625)"/>
       <path id="DejaVuSans-47" d="M 2906 2969 
L 2906 4863 
L 3481 4863 
L 3481 0 
L 2906 0 
L 2906 525 
Q 2725 213 2448 61 
Q 2172 -91 1784 -91 
Q 1150 -91 751 415 
Q 353 922 353 1747 
Q 353 2572 751 3078 
Q 1150 3584 1784 3584 
Q 2172 3584 2448 3432 
Q 2725 3281 2906 2969 
z
M 947 1747 
Q 947 1113 1208 752 
Q 1469 391 1925 391 
Q 2381 391 2643 752 
Q 2906 1113 2906 1747 
Q 2906 2381 2643 2742 
Q 2381 3103 1925 3103 
Q 1469 3103 1208 2742 
Q 947 2381 947 1747 
z
" transform="scale(0.015625)"/>
       <path id="DejaVuSans-44" d="M 2194 1759 
Q 1497 1759 1228 1600 
Q 959 1441 959 1056 
Q 959 750 1161 570 
Q 1363 391 1709 391 
Q 2188 391 2477 730 
Q 2766 1069 2766 1631 
L 2766 1759 
L 2194 1759 
z
M 3341 1997 
L 3341 0 
L 2766 0 
L 2766 531 
Q 2569 213 2275 61 
Q 1981 -91 1556 -91 
Q 1019 -91 701 211 
Q 384 513 384 1019 
Q 384 1609 779 1909 
Q 1175 2209 1959 2209 
L 2766 2209 
L 2766 2266 
Q 2766 2663 2505 2880 
Q 2244 3097 1772 3097 
Q 1472 3097 1187 3025 
Q 903 2953 641 2809 
L 641 3341 
Q 956 3463 1253 3523 
Q 1550 3584 1831 3584 
Q 2591 3584 2966 3190 
Q 3341 2797 3341 1997 
z
" transform="scale(0.015625)"/>
       <path id="DejaVuSans-5c" d="M 2059 -325 
Q 1816 -950 1584 -1140 
Q 1353 -1331 966 -1331 
L 506 -1331 
L 506 -850 
L 844 -850 
Q 1081 -850 1212 -737 
Q 1344 -625 1503 -206 
L 1606 56 
L 191 3500 
L 800 3500 
L 1894 763 
L 2988 3500 
L 3597 3500 
L 2059 -325 
z
" transform="scale(0.015625)"/>
      </defs>
      <use xlink:href="#DejaVuSans-2b"/>
      <use xlink:href="#DejaVuSans-52" transform="translate(75.203125 0)"/>
      <use xlink:href="#DejaVuSans-58" transform="translate(136.390625 0)"/>
      <use xlink:href="#DejaVuSans-55" transform="translate(199.765625 0)"/>
      <use xlink:href="#DejaVuSans-3" transform="translate(240.875 0)"/>
      <use xlink:href="#DejaVuSans-52" transform="translate(272.65625 0)"/>
      <use xlink:href="#DejaVuSans-49" transform="translate(333.84375 0)"/>
      <use xlink:href="#DejaVuSans-3" transform="translate(369.046875 0)"/>
      <use xlink:href="#DejaVuSans-47" transform="translate(400.828125 0)"/>
      <use xlink:href="#DejaVuSans-44" transform="translate(464.3125 0)"/>
      <use xlink:href="#DejaVuSans-5c" transform="translate(525.59375 0)"/>
     </g>
    </g>
   </g>
   <g id="matplotlib.axis_2">
    <g id="ytick_1">
     <g id="line2d_11">
      <path d="M 64.522344 266.211198 
L 637.2 266.211198 
" clip-path="url(#pefbc7b0693)" style="fill: none; stroke: #b0b0b0; stroke-opacity: 0.25; stroke-width: 0.8; stroke-linecap: square"/>
     </g>
     <g id="line2d_12">
      <defs>
       <path id="ma51de36c70" d="M 0 0 
L -3.5 0 
" style="stroke: #000000; stroke-width: 0.8"/>
      </defs>
      <g>
       <use xlink:href="#ma51de36c70" x="64.522344" y="266.211198" style="stroke: #000000; stroke-width: 0.8"/>
      </g>
     </g>
     <g id="text_7">
      <!-- 4000 -->
      <g transform="translate(32.072344 270.010026) scale(0.1 -0.1)">
       <defs>
        <path id="DejaVuSans-17" d="M 2419 4116 
L 825 1625 
L 2419 1625 
L 2419 4116 
z
M 2253 4666 
L 3047 4666 
L 3047 1625 
L 3713 1625 
L 3713 1100 
L 3047 1100 
L 3047 0 
L 2419 0 
L 2419 1100 
L 313 1100 
L 313 1709 
L 2253 4666 
z
" transform="scale(0.015625)"/>
       </defs>
       <use xlink:href="#DejaVuSans-17"/>
       <use xlink:href="#DejaVuSans-13" transform="translate(63.625 0)"/>
       <use xlink:href="#DejaVuSans-13" transform="translate(127.25 0)"/>
       <use xlink:href="#DejaVuSans-13" transform="translate(190.875 0)"/>
      </g>
     </g>
    </g>
    <g id="ytick_2">
     <g id="line2d_13">
      <path d="M 64.522344 199.698991 
L 637.2 199.698991 
" clip-path="url(#pefbc7b0693)" style="fill: none; stroke: #b0b0b0; stroke-opacity: 0.25; stroke-width: 0.8; stroke-linecap: square"/>
     </g>
     <g id="line2d_14">
      <g>
       <use xlink:href="#ma51de36c70" x="64.522344" y="199.698991" style="stroke: #000000; stroke-width: 0.8"/>
      </g>
     </g>
     <g id="text_8">
      <!-- 6000 -->
      <g transform="translate(32.072344 203.497819) scale(0.1 -0.1)">
       <defs>
        <path id="DejaVuSans-19" d="M 2113 2584 
Q 1688 2584 1439 2293 
Q 1191 2003 1191 1497 
Q 1191 994 1439 701 
Q 1688 409 2113 409 
Q 2538 409 2786 701 
Q 3034 994 3034 1497 
Q 3034 2003 2786 2293 
Q 2538 2584 2113 2584 
z
M 3366 4563 
L 3366 3988 
Q 3128 4100 2886 4159 
Q 2644 4219 2406 4219 
Q 1781 4219 1451 3797 
Q 1122 3375 1075 2522 
Q 1259 2794 1537 2939 
Q 1816 3084 2150 3084 
Q 2853 3084 3261 2657 
Q 3669 2231 3669 1497 
Q 3669 778 3244 343 
Q 2819 -91 2113 -91 
Q 1303 -91 875 529 
Q 447 1150 447 2328 
Q 447 3434 972 4092 
Q 1497 4750 2381 4750 
Q 2619 4750 2861 4703 
Q 3103 4656 3366 4563 
z
" transform="scale(0.015625)"/>
       </defs>
       <use xlink:href="#DejaVuSans-19"/>
       <use xlink:href="#DejaVuSans-13" transform="translate(63.625 0)"/>
       <use xlink:href="#DejaVuSans-13" transform="translate(127.25 0)"/>
       <use xlink:href="#DejaVuSans-13" transform="translate(190.875 0)"/>
      </g>
     </g>
    </g>
    <g id="ytick_3">
     <g id="line2d_15">
      <path d="M 64.522344 133.186784 
L 637.2 133.186784 
" clip-path="url(#pefbc7b0693)" style="fill: none; stroke: #b0b0b0; stroke-opacity: 0.25; stroke-width: 0.8; stroke-linecap: square"/>
     </g>
     <g id="line2d_16">
      <g>
       <use xlink:href="#ma51de36c70" x="64.522344" y="133.186784" style="stroke: #000000; stroke-width: 0.8"/>
      </g>
     </g>
     <g id="text_9">
      <!-- 8000 -->
      <g transform="translate(32.072344 136.985612) scale(0.1 -0.1)">
       <defs>
        <path id="DejaVuSans-1b" d="M 2034 2216 
Q 1584 2216 1326 1975 
Q 1069 1734 1069 1313 
Q 1069 891 1326 650 
Q 1584 409 2034 409 
Q 2484 409 2743 651 
Q 3003 894 3003 1313 
Q 3003 1734 2745 1975 
Q 2488 2216 2034 2216 
z
M 1403 2484 
Q 997 2584 770 2862 
Q 544 3141 544 3541 
Q 544 4100 942 4425 
Q 1341 4750 2034 4750 
Q 2731 4750 3128 4425 
Q 3525 4100 3525 3541 
Q 3525 3141 3298 2862 
Q 3072 2584 2669 2484 
Q 3125 2378 3379 2068 
Q 3634 1759 3634 1313 
Q 3634 634 3220 271 
Q 2806 -91 2034 -91 
Q 1263 -91 848 271 
Q 434 634 434 1313 
Q 434 1759 690 2068 
Q 947 2378 1403 2484 
z
M 1172 3481 
Q 1172 3119 1398 2916 
Q 1625 2713 2034 2713 
Q 2441 2713 2670 2916 
Q 2900 3119 2900 3481 
Q 2900 3844 2670 4047 
Q 2441 4250 2034 4250 
Q 1625 4250 1398 4047 
Q 1172 3844 1172 3481 
z
" transform="scale(0.015625)"/>
       </defs>
       <use xlink:href="#DejaVuSans-1b"/>
       <use xlink:href="#DejaVuSans-13" transform="translate(63.625 0)"/>
       <use xlink:href="#DejaVuSans-13" transform="translate(127.25 0)"/>
       <use xlink:href="#DejaVuSans-13" transform="translate(190.875 0)"/>
      </g>
     </g>
    </g>
    <g id="ytick_4">
     <g id="line2d_17">
      <path d="M 64.522344 66.674577 
L 637.2 66.674577 
" clip-path="url(#pefbc7b0693)" style="fill: none; stroke: #b0b0b0; stroke-opacity: 0.25; stroke-width: 0.8; stroke-linecap: square"/>
     </g>
     <g id="line2d_18">
      <g>
       <use xlink:href="#ma51de36c70" x="64.522344" y="66.674577" style="stroke: #000000; stroke-width: 0.8"/>
      </g>
     </g>
     <g id="text_10">
      <!-- 10000 -->
      <g transform="translate(25.709844 70.473405) scale(0.1 -0.1)">
       <use xlink:href="#DejaVuSans-14"/>
       <use xlink:href="#DejaVuSans-13" transform="translate(63.625 0)"/>
       <use xlink:href="#DejaVuSans-13" transform="translate(127.25 0)"/>
       <use xlink:href="#DejaVuSans-13" transform="translate(190.875 0)"/>
       <use xlink:href="#DejaVuSans-13" transform="translate(254.5 0)"/>
      </g>
     </g>
    </g>
    <g id="text_11">
     <!-- Load (MW) -->
     <g transform="translate(19.3075 191.083359) rotate(-90) scale(0.1 -0.1)">
      <defs>
       <path id="DejaVuSans-2f" d="M 628 4666 
L 1259 4666 
L 1259 531 
L 3531 531 
L 3531 0 
L 628 0 
L 628 4666 
z
" transform="scale(0.015625)"/>
       <path id="DejaVuSans-b" d="M 1984 4856 
Q 1566 4138 1362 3434 
Q 1159 2731 1159 2009 
Q 1159 1288 1364 580 
Q 1569 -128 1984 -844 
L 1484 -844 
Q 1016 -109 783 600 
Q 550 1309 550 2009 
Q 550 2706 781 3412 
Q 1013 4119 1484 4856 
L 1984 4856 
z
" transform="scale(0.015625)"/>
       <path id="DejaVuSans-30" d="M 628 4666 
L 1569 4666 
L 2759 1491 
L 3956 4666 
L 4897 4666 
L 4897 0 
L 4281 0 
L 4281 4097 
L 3078 897 
L 2444 897 
L 1241 4097 
L 1241 0 
L 628 0 
L 628 4666 
z
" transform="scale(0.015625)"/>
       <path id="DejaVuSans-3a" d="M 213 4666 
L 850 4666 
L 1831 722 
L 2809 4666 
L 3519 4666 
L 4500 722 
L 5478 4666 
L 6119 4666 
L 4947 0 
L 4153 0 
L 3169 4050 
L 2175 0 
L 1381 0 
L 213 4666 
z
" transform="scale(0.015625)"/>
       <path id="DejaVuSans-c" d="M 513 4856 
L 1013 4856 
Q 1481 4119 1714 3412 
Q 1947 2706 1947 2009 
Q 1947 1309 1714 600 
Q 1481 -109 1013 -844 
L 513 -844 
Q 928 -128 1133 580 
Q 1338 1288 1338 2009 
Q 1338 2731 1133 3434 
Q 928 4138 513 4856 
z
" transform="scale(0.015625)"/>
      </defs>
      <use xlink:href="#DejaVuSans-2f"/>
      <use xlink:href="#DejaVuSans-52" transform="translate(53.96875 0)"/>
      <use xlink:href="#DejaVuSans-44" transform="translate(115.15625 0)"/>
      <use xlink:href="#DejaVuSans-47" transform="translate(176.4375 0)"/>
      <use xlink:href="#DejaVuSans-3" transform="translate(239.921875 0)"/>
      <use xlink:href="#DejaVuSans-b" transform="translate(271.703125 0)"/>
      <use xlink:href="#DejaVuSans-30" transform="translate(310.71875 0)"/>
      <use xlink:href="#DejaVuSans-3a" transform="translate(397 0)"/>
      <use xlink:href="#DejaVuSans-c" transform="translate(495.875 0)"/>
     </g>
    </g>
   </g>
   <g id="line2d_19">
    <path d="M 64.522344 281.357341 
L 70.55053 283.393375 
L 76.578715 285.639682 
L 82.606901 287.520663 
L 88.635087 289.366227 
L 94.663273 291.048044 
L 100.691459 292.627604 
L 106.719645 293.919196 
L 112.747831 295.241107 
L 118.776016 296.352265 
L 124.804202 297.315496 
L 130.832388 298.240764 
L 136.860574 299.198323 
L 142.88876 300.024023 
L 148.916946 300.727554 
L 154.945132 301.321309 
L 160.973317 301.953892 
L 167.001503 302.421188 
L 173.029689 302.913232 
L 179.057875 303.354056 
L 185.086061 303.456217 
L 191.114247 303.71979 
L 197.142433 303.731547 
L 203.170618 303.761843 
L 209.198804 303.919581 
L 215.22699 303.304485 
L 221.255176 303.029105 
L 227.283362 302.642846 
L 233.311548 301.49565 
L 239.339734 298.919882 
L 245.367919 296.202932 
L 251.396105 292.619578 
L 257.424291 284.828041 
L 263.452477 276.455965 
L 269.480663 272.716739 
L 275.508849 269.57222 
L 281.537035 267.393112 
L 287.56522 264.865865 
L 293.593406 263.31864 
L 299.621592 261.300189 
L 305.649778 259.873964 
L 311.677964 258.423491 
L 317.70615 257.027783 
L 323.734336 255.946278 
L 329.762521 255.23053 
L 335.790707 254.655439 
L 341.818893 255.723079 
L 347.847079 258.998127 
L 353.875265 267.278576 
L 359.903451 273.602187 
L 365.931637 274.948398 
L 371.959822 275.530997 
L 377.988008 275.789056 
L 384.016194 275.002775 
L 390.04438 272.216183 
L 396.072566 267.529113 
L 402.100752 267.029711 
L 408.128937 266.044046 
L 414.157123 265.978964 
L 420.185309 265.613491 
L 426.213495 265.325589 
L 432.241681 265.076531 
L 438.269867 264.727031 
L 444.298053 263.672524 
L 450.326238 262.52281 
L 456.354424 260.959513 
L 462.38261 260.070682 
L 468.410796 260.332551 
L 474.438982 260.476915 
L 480.467168 260.45817 
L 486.495354 263.063355 
L 492.523539 264.43705 
L 498.551725 263.443972 
L 504.579911 260.230803 
L 510.608097 256.667856 
L 516.636283 254.368395 
L 522.664469 254.252822 
L 528.692655 254.60955 
L 534.72084 254.882201 
L 540.749026 255.924051 
L 546.777212 257.562088 
L 552.805398 257.759701 
L 558.833584 257.503239 
L 564.86177 257.479544 
L 570.889956 259.166933 
L 576.918141 259.650786 
L 582.946327 260.54957 
L 588.974513 261.894915 
L 595.002699 263.612037 
L 601.030885 265.650154 
L 607.059071 268.70683 
L 613.087257 272.263855 
L 619.115442 275.676909 
L 625.143628 279.946433 
L 631.171814 283.037712 
L 637.2 286.576997 
" clip-path="url(#pefbc7b0693)" style="fill: none; stroke: #1f77b4; stroke-width: 1.5; stroke-linecap: square"/>
   </g>
   <g id="line2d_20">
    <path d="M 64.522344 213.420704 
L 70.55053 216.329102 
L 76.578715 218.687582 
L 82.606901 220.194584 
L 88.635087 222.300947 
L 94.663273 223.786929 
L 100.691459 225.434093 
L 106.719645 226.855072 
L 112.747831 228.382314 
L 118.776016 229.601315 
L 124.804202 230.706309 
L 130.832388 231.763095 
L 136.860574 233.049027 
L 142.88876 234.140754 
L 148.916946 234.916543 
L 154.945132 235.651939 
L 160.973317 236.529263 
L 167.001503 237.232339 
L 173.029689 237.869579 
L 179.057875 238.284833 
L 185.086061 238.479686 
L 191.114247 238.409396 
L 197.142433 238.208597 
L 203.170618 237.575705 
L 209.198804 236.861808 
L 215.22699 234.41064 
L 221.255176 232.602183 
L 227.283362 229.400237 
L 233.311548 226.014142 
L 239.339734 220.341628 
L 245.367919 213.743911 
L 251.396105 202.647453 
L 257.424291 176.646703 
L 263.452477 147.819401 
L 269.480663 136.976741 
L 275.508849 130.106159 
L 281.537035 126.060651 
L 287.56522 122.195958 
L 293.593406 119.667281 
L 299.621592 116.713993 
L 305.649778 114.759664 
L 311.677964 112.814025 
L 317.70615 110.663544 
L 323.734336 109.644892 
L 329.762521 109.519385 
L 335.790707 110.103381 
L 341.818893 115.746924 
L 347.847079 127.828939 
L 353.875265 158.200717 
L 359.903451 180.542354 
L 365.931637 181.294383 
L 371.959822 180.909526 
L 377.988008 178.743432 
L 384.016194 173.177355 
L 390.04438 156.799271 
L 396.072566 134.064875 
L 402.100752 128.540666 
L 408.128937 123.368725 
L 414.157123 122.04054 
L 420.185309 121.029167 
L 426.213495 120.087483 
L 432.241681 118.891322 
L 438.269867 117.64707 
L 444.298053 115.979068 
L 450.326238 114.205888 
L 456.354424 112.27021 
L 462.38261 111.598754 
L 468.410796 112.708707 
L 474.438982 116.029705 
L 480.467168 121.338969 
L 486.495354 137.902521 
L 492.523539 151.45084 
L 498.551725 153.130157 
L 504.579911 149.197083 
L 510.608097 142.119727 
L 516.636283 134.103374 
L 522.664469 132.07825 
L 528.692655 130.778402 
L 534.72084 131.700465 
L 540.749026 134.261059 
L 546.777212 138.246995 
L 552.805398 139.003407 
L 558.833584 139.077266 
L 564.86177 140.318532 
L 570.889956 144.413235 
L 576.918141 147.51046 
L 582.946327 151.08409 
L 588.974513 156.011544 
L 595.002699 161.135355 
L 601.030885 166.324643 
L 607.059071 172.399842 
L 613.087257 179.773995 
L 619.115442 187.032081 
L 625.143628 195.327776 
L 631.171814 202.168082 
L 637.2 208.655382 
" clip-path="url(#pefbc7b0693)" style="fill: none; stroke: #ff7f0e; stroke-width: 1.5; stroke-linecap: square"/>
   </g>
   <g id="line2d_21">
    <path d="M 64.522344 148.602344 
L 70.55053 151.305351 
L 76.578715 153.681904 
L 82.606901 155.194183 
L 88.635087 157.427267 
L 94.663273 159.159712 
L 100.691459 161.208093 
L 106.719645 163.125261 
L 112.747831 165.196326 
L 118.776016 167.084938 
L 124.804202 168.765899 
L 130.832388 170.460444 
L 136.860574 172.294585 
L 142.88876 174.112261 
L 148.916946 175.53708 
L 154.945132 176.921808 
L 160.973317 178.349978 
L 167.001503 179.609283 
L 173.029689 180.889689 
L 179.057875 181.972795 
L 185.086061 182.935294 
L 191.114247 183.861214 
L 197.142433 184.745998 
L 203.170618 185.25701 
L 209.198804 185.47049 
L 215.22699 183.99391 
L 221.255176 183.045368 
L 227.283362 181.371552 
L 233.311548 179.513207 
L 239.339734 175.430113 
L 245.367919 167.932297 
L 251.396105 151.891528 
L 257.424291 114.235824 
L 263.452477 77.023367 
L 269.480663 62.593014 
L 275.508849 53.124103 
L 281.537035 47.517462 
L 287.56522 42.370602 
L 293.593406 38.652205 
L 299.621592 34.650935 
L 305.649778 32.113753 
L 311.677964 29.556225 
L 317.70615 26.989606 
L 323.734336 25.729007 
L 329.762521 25.476869 
L 335.790707 25.949906 
L 341.818893 32.223032 
L 347.847079 46.520963 
L 353.875265 82.981705 
L 359.903451 112.046522 
L 365.931637 107.471373 
L 371.959822 104.679029 
L 377.988008 100.756555 
L 384.016194 93.146482 
L 390.04438 74.886465 
L 396.072566 46.644835 
L 402.100752 39.3745 
L 408.128937 31.802497 
L 414.157123 30.318741 
L 420.185309 29.270052 
L 426.213495 28.434703 
L 432.241681 27.778515 
L 438.269867 27.015185 
L 444.298053 26.023228 
L 450.326238 25.268444 
L 456.354424 24.758075 
L 462.38261 25.377682 
L 468.410796 28.008955 
L 474.438982 33.791449 
L 480.467168 43.008925 
L 486.495354 66.21553 
L 492.523539 89.407146 
L 498.551725 96.199796 
L 504.579911 96.218432 
L 510.608097 87.952035 
L 516.636283 76.193467 
L 522.664469 72.106956 
L 528.692655 67.518526 
L 534.72084 66.146491 
L 540.749026 67.256959 
L 546.777212 71.069006 
L 552.805398 72.082489 
L 558.833584 72.366802 
L 564.86177 74.275907 
L 570.889956 78.578351 
L 576.918141 82.806702 
L 582.946327 86.96694 
L 588.974513 93.319106 
L 595.002699 98.715481 
L 601.030885 104.51194 
L 607.059071 109.812394 
L 613.087257 116.354181 
L 619.115442 122.518739 
L 625.143628 129.455958 
L 631.171814 135.225808 
L 637.2 140.822365 
" clip-path="url(#pefbc7b0693)" style="fill: none; stroke: #2ca02c; stroke-width: 1.5; stroke-linecap: square"/>
   </g>
   <g id="patch_3">
    <path d="M 64.522344 317.877656 
L 64.522344 10.8 
" style="fill: none; stroke: #000000; stroke-width: 0.8; stroke-linejoin: miter; stroke-linecap: square"/>
   </g>
   <g id="patch_4">
    <path d="M 637.2 317.877656 
L 637.2 10.8 
" style="fill: none; stroke: #000000; stroke-width: 0.8; stroke-linejoin: miter; stroke-linecap: square"/>
   </g>
   <g id="patch_5">
    <path d="M 64.522344 317.877656 
L 637.2 317.877656 
" style="fill: none; stroke: #000000; stroke-width: 0.8; stroke-linejoin: miter; stroke-linecap: square"/>
   </g>
   <g id="patch_6">
    <path d="M 64.522344 10.8 
L 637.2 10.8 
" style="fill: none; stroke: #000000; stroke-width: 0.8; stroke-linejoin: miter; stroke-linecap: square"/>
   </g>
   <g id="legend_1">
    <g id="patch_7">
     <path d="M 553.167187 63.802344 
L 630.2 63.802344 
Q 632.2 63.802344 632.2 61.802344 
L 632.2 17.8 
Q 632.2 15.8 630.2 15.8 
L 553.167187 15.8 
Q 551.167187 15.8 551.167187 17.8 
L 551.167187 61.802344 
Q 551.167187 63.802344 553.167187 63.802344 
z
" style="fill: #ffffff; opacity: 0.8; stroke: #cccccc; stroke-linejoin: miter"/>
    </g>
    <g id="line2d_22">
     <path d="M 555.167187 23.898438 
L 565.167187 23.898438 
L 575.167187 23.898438 
" style="fill: none; stroke: #1f77b4; stroke-width: 1.5; stroke-linecap: square"/>
    </g>
    <g id="text_12">
     <!-- Cluster 1 -->
     <g transform="translate(583.167187 27.398438) scale(0.1 -0.1)">
      <defs>
       <path id="DejaVuSans-26" d="M 4122 4306 
L 4122 3641 
Q 3803 3938 3442 4084 
Q 3081 4231 2675 4231 
Q 1875 4231 1450 3742 
Q 1025 3253 1025 2328 
Q 1025 1406 1450 917 
Q 1875 428 2675 428 
Q 3081 428 3442 575 
Q 3803 722 4122 1019 
L 4122 359 
Q 3791 134 3420 21 
Q 3050 -91 2638 -91 
Q 1578 -91 968 557 
Q 359 1206 359 2328 
Q 359 3453 968 4101 
Q 1578 4750 2638 4750 
Q 3056 4750 3426 4639 
Q 3797 4528 4122 4306 
z
" transform="scale(0.015625)"/>
       <path id="DejaVuSans-4f" d="M 603 4863 
L 1178 4863 
L 1178 0 
L 603 0 
L 603 4863 
z
" transform="scale(0.015625)"/>
       <path id="DejaVuSans-56" d="M 2834 3397 
L 2834 2853 
Q 2591 2978 2328 3040 
Q 2066 3103 1784 3103 
Q 1356 3103 1142 2972 
Q 928 2841 928 2578 
Q 928 2378 1081 2264 
Q 1234 2150 1697 2047 
L 1894 2003 
Q 2506 1872 2764 1633 
Q 3022 1394 3022 966 
Q 3022 478 2636 193 
Q 2250 -91 1575 -91 
Q 1294 -91 989 -36 
Q 684 19 347 128 
L 347 722 
Q 666 556 975 473 
Q 1284 391 1588 391 
Q 1994 391 2212 530 
Q 2431 669 2431 922 
Q 2431 1156 2273 1281 
Q 2116 1406 1581 1522 
L 1381 1569 
Q 847 1681 609 1914 
Q 372 2147 372 2553 
Q 372 3047 722 3315 
Q 1072 3584 1716 3584 
Q 2034 3584 2315 3537 
Q 2597 3491 2834 3397 
z
" transform="scale(0.015625)"/>
       <path id="DejaVuSans-57" d="M 1172 4494 
L 1172 3500 
L 2356 3500 
L 2356 3053 
L 1172 3053 
L 1172 1153 
Q 1172 725 1289 603 
Q 1406 481 1766 481 
L 2356 481 
L 2356 0 
L 1766 0 
Q 1100 0 847 248 
Q 594 497 594 1153 
L 594 3053 
L 172 3053 
L 172 3500 
L 594 3500 
L 594 4494 
L 1172 4494 
z
" transform="scale(0.015625)"/>
       <path id="DejaVuSans-48" d="M 3597 1894 
L 3597 1613 
L 953 1613 
Q 991 1019 1311 708 
Q 1631 397 2203 397 
Q 2534 397 2845 478 
Q 3156 559 3463 722 
L 3463 178 
Q 3153 47 2828 -22 
Q 2503 -91 2169 -91 
Q 1331 -91 842 396 
Q 353 884 353 1716 
Q 353 2575 817 3079 
Q 1281 3584 2069 3584 
Q 2775 3584 3186 3129 
Q 3597 2675 3597 1894 
z
M 3022 2063 
Q 3016 2534 2758 2815 
Q 2500 3097 2075 3097 
Q 1594 3097 1305 2825 
Q 1016 2553 972 2059 
L 3022 2063 
z
" transform="scale(0.015625)"/>
      </defs>
      <use xlink:href="#DejaVuSans-26"/>
      <use xlink:href="#DejaVuSans-4f" transform="translate(69.828125 0)"/>
      <use xlink:href="#DejaVuSans-58" transform="translate(97.609375 0)"/>
      <use xlink:href="#DejaVuSans-56" transform="translate(160.984375 0)"/>
      <use xlink:href="#DejaVuSans-57" transform="translate(213.078125 0)"/>
      <use xlink:href="#DejaVuSans-48" transform="translate(252.28125 0)"/>
      <use xlink:href="#DejaVuSans-55" transform="translate(313.8125 0)"/>
      <use xlink:href="#DejaVuSans-3" transform="translate(354.921875 0)"/>
      <use xlink:href="#DejaVuSans-14" transform="translate(386.703125 0)"/>
     </g>
    </g>
    <g id="line2d_23">
     <path d="M 555.167187 38.899219 
L 565.167187 38.899219 
L 575.167187 38.899219 
" style="fill: none; stroke: #ff7f0e; stroke-width: 1.5; stroke-linecap: square"/>
    </g>
    <g id="text_13">
     <!-- Cluster 2 -->
     <g transform="translate(583.167187 42.399219) scale(0.1 -0.1)">
      <use xlink:href="#DejaVuSans-26"/>
      <use xlink:href="#DejaVuSans-4f" transform="translate(69.828125 0)"/>
      <use xlink:href="#DejaVuSans-58" transform="translate(97.609375 0)"/>
      <use xlink:href="#DejaVuSans-56" transform="translate(160.984375 0)"/>
      <use xlink:href="#DejaVuSans-57" transform="translate(213.078125 0)"/>
      <use xlink:href="#DejaVuSans-48" transform="translate(252.28125 0)"/>
      <use xlink:href="#DejaVuSans-55" transform="translate(313.8125 0)"/>
      <use xlink:href="#DejaVuSans-3" transform="translate(354.921875 0)"/>
      <use xlink:href="#DejaVuSans-15" transform="translate(386.703125 0)"/>
     </g>
    </g>
    <g id="line2d_24">
     <path d="M 555.167187 53.9 
L 565.167187 53.9 
L 575.167187 53.9 
" style="fill: none; stroke: #2ca02c; stroke-width: 1.5; stroke-linecap: square"/>
    </g>
    <g id="text_14">
     <!-- Cluster 3 -->
     <g transform="translate(583.167187 57.4) scale(0.1 -0.1)">
      <defs>
       <path id="DejaVuSans-16" d="M 2597 2516 
Q 3050 2419 3304 2112 
Q 3559 1806 3559 1356 
Q 3559 666 3084 287 
Q 2609 -91 1734 -91 
Q 1441 -91 1130 -33 
Q 819 25 488 141 
L 488 750 
Q 750 597 1062 519 
Q 1375 441 1716 441 
Q 2309 441 2620 675 
Q 2931 909 2931 1356 
Q 2931 1769 2642 2001 
Q 2353 2234 1838 2234 
L 1294 2234 
L 1294 2753 
L 1863 2753 
Q 2328 2753 2575 2939 
Q 2822 3125 2822 3475 
Q 2822 3834 2567 4026 
Q 2313 4219 1838 4219 
Q 1578 4219 1281 4162 
Q 984 4106 628 3988 
L 628 4550 
Q 988 4650 1302 4700 
Q 1616 4750 1894 4750 
Q 2613 4750 3031 4423 
Q 3450 4097 3450 3541 
Q 3450 3153 3228 2886 
Q 3006 2619 2597 2516 
z
" transform="scale(0.015625)"/>
      </defs>
      <use xlink:href="#DejaVuSans-26"/>
      <use xlink:href="#DejaVuSans-4f" transform="translate(69.828125 0)"/>
      <use xlink:href="#DejaVuSans-58" transform="translate(97.609375 0)"/>
      <use xlink:href="#DejaVuSans-56" transform="translate(160.984375 0)"/>
      <use xlink:href="#DejaVuSans-57" transform="translate(213.078125 0)"/>
      <use xlink:href="#DejaVuSans-48" transform="translate(252.28125 0)"/>
      <use xlink:href="#DejaVuSans-55" transform="translate(313.8125 0)"/>
      <use xlink:href="#DejaVuSans-3" transform="translate(354.921875 0)"/>
      <use xlink:href="#DejaVuSans-16" transform="translate(386.703125 0)"/>
     </g>
    </g>
   </g>
  </g>
 </g>
 <defs>
  <clipPath id="pefbc7b0693">
   <rect x="64.522344" y="10.8" width="572.677656" height="307.077656"/>
  </clipPath>
 </defs>
</svg>
