<?xml version="1.0" encoding="utf-8" standalone="no"?>
<!DOCTYPE svg PUBLIC "-//W3C//DTD SVG 1.1//EN"
  "http://www.w3.org/Graphics/SVG/1.1/DTD/svg11.dtd">
<svg xmlns:xlink="http://www.w3.org/1999/xlink" width="576pt" height="360pt" viewBox="0 0 576 360" xmlns="http://www.w3.org/2000/svg" version="1.1">
 <metadata>
  <rdf:RDF xmlns:dc="http://purl.org/dc/elements/1.1/" xmlns:cc="http://creativecommons.org/ns#" xmlns:rdf="http://www.w3.org/1999/02/22-rdf-syntax-ns#">
   <cc:Work>
    <dc:type rdf:resource="http://purl.org/dc/dcmitype/StillImage"/>
    <dc:date>2026-09-07T02:57:37.773108</dc:date>
    <dc:format>image/svg+xml</dc:format>
    <dc:creator>
     <cc:Agent>
      <dc:title>Matplotlib v3.11.1, https://matplotlib.org/</dc:title>
     </cc:Agent>
    </dc:creator>
   </cc:Work>
  </rdf:RDF>
 </metadata>
 <defs>
  <style type="text/css">*{stroke-linejoin: round; stroke-linecap: butt}</style>
 </defs>
 <g id="figure_1">
  <g id="patch_1">
   <path d="M 0 360 
L 576 360 
L 576 0 
L 0 0 
z
" style="fill: #ffffff"/>
  </g>
  <g id="axes_1">
   <g id="patch_2">
    <path d="M 64.522344 317.877656 
L 555.48 317.877656 
L 555.48 11.579487 
L 64.522344 11.579487 
z
" style="fill: #ffffff"/>
   </g>
   <g id="matplotlib.axis_1">
    <g id="xtick_1">
     <g id="line2d_1">
      <defs>
       <path id="m47be9648e9" d="M 0 0 
L 0 3.5 
" style="stroke: #000000; stroke-width: 0.8"/>
      </defs>
      <g>
       <use xlink:href="#m47be9648e9" x="64.522344" y="317.877656" style="stroke: #000000; stroke-width: 0.8"/>
      </g>
     </g>
     <g id="text_1">
      <!-- 0 -->
      <g transform="translate(61.341094 332.475312) scale(0.1 -0.1)">
       <defs>
        <path id="DejaVuSans-13" d="M 2034 4250 
Q 1547 4250 1301 3770 
Q 1056 3291 1056 2328 
Q 1056 1369 1301 889 
Q 1547 409 2034 409 
Q 2525 409 2770 889 
Q 3016 1369 3016 2328 
Q 3016 3291 2770 3770 
Q 2525 4250 2034 4250 
z
M 2034 4750 
Q 2819 4750 3233 4129 
Q 3647 3509 3647 2328 
Q 3647 1150 3233 529 
Q 2819 -91 2034 -91 
Q 1250 -91 836 529 
Q 422 1150 422 2328 
Q 422 3509 836 4129 
Q 1250 4750 2034 4750 
z
" transform="scale(0.015625)"/>
       </defs>
       <use xlink:href="#DejaVuSans-13"/>
      </g>
     </g>
    </g>
    <g id="xtick_2">
     <g id="line2d_2">
      <g>
       <use xlink:href="#m47be9648e9" x="162.713875" y="317.877656" style="stroke: #000000; stroke-width: 0.8"/>
      </g>
     </g>
     <g id="text_2">
      <!-- 20 -->
      <g transform="translate(156.351375 332.475312) scale(0.1 -0.1)">
       <defs>
        <path id="DejaVuSans-15" d="M 1228 531 
L 3431 531 
L 3431 0 
L 469 0 
L 469 531 
Q 828 903 1448 1529 
Q 2069 2156 2228 2338 
Q 2531 2678 2651 2914 
Q 2772 3150 2772 3378 
Q 2772 3750 2511 3984 
Q 2250 4219 1831 4219 
Q 1534 4219 1204 4116 
Q 875 4013 500 3803 
L 500 4441 
Q 881 4594 1212 4672 
Q 1544 4750 1819 4750 
Q 2544 4750 2975 4387 
Q 3406 4025 3406 3419 
Q 3406 3131 3298 2873 
Q 3191 2616 2906 2266 
Q 2828 2175 2409 1742 
Q 1991 1309 1228 531 
z
" transform="scale(0.015625)"/>
       </defs>
       <use xlink:href="#DejaVuSans-15"/>
       <use xlink:href="#DejaVuSans-13" transform="translate(63.625 0)"/>
      </g>
     </g>
    </g>
    <g id="xtick_3">
     <g id="line2d_3">
      <g>
       <use xlink:href="#m47be9648e9" x="260.905406" y="317.877656" style="stroke: #000000; stroke-width: 0.8"/>
      </g>
     </g>
     <g id="text_3">
      <!-- 40 -->
      <g transform="translate(254.542906 332.475312) scale(0.1 -0.1)">
       <defs>
        <path id="DejaVuSans-17" d="M 2419 4116 
L 825 1625 
L 2419 1625 
L 2419 4116 
z
M 2253 4666 
L 3047 4666 
L 3047 1625 
L 3713 1625 
L 3713 1100 
L 3047 1100 
L 3047 0 
L 2419 0 
L 2419 1100 
L 313 1100 
L 313 1709 
L 2253 4666 
z
" transform="scale(0.015625)"/>
       </defs>
       <use xlink:href="#DejaVuSans-17"/>
       <use xlink:href="#DejaVuSans-13" transform="translate(63.625 0)"/>
      </g>
     </g>
    </g>
    <g id="xtick_4">
     <g id="line2d_4">
      <g>
       <use xlink:href="#m47be9648e9" x="359.096937" y="317.877656" style="stroke: #000000; stroke-width: 0.8"/>
      </g>
     </g>
     <g id="text_4">
      <!-- 60 -->
      <g transform="translate(352.734437 332.475312) scale(0.1 -0.1)">
       <defs>
        <path id="DejaVuSans-19" d="M 2113 2584 
Q 1688 2584 1439 2293 
Q 1191 2003 1191 1497 
Q 1191 994 1439 701 
Q 1688 409 2113 409 
Q 2538 409 2786 701 
Q 3034 994 3034 1497 
Q 3034 2003 2786 2293 
Q 2538 2584 2113 2584 
z
M 3366 4563 
L 3366 3988 
Q 3128 4100 2886 4159 
Q 2644 4219 2406 4219 
Q 1781 4219 1451 3797 
Q 1122 3375 1075 2522 
Q 1259 2794 1537 2939 
Q 1816 3084 2150 3084 
Q 2853 3084 3261 2657 
Q 3669 2231 3669 1497 
Q 3669 778 3244 343 
Q 2819 -91 2113 -91 
Q 1303 -91 875 529 
Q 447 1150 447 2328 
Q 447 3434 972 4092 
Q 1497 4750 2381 4750 
Q 2619 4750 2861 4703 
Q 3103 4656 3366 4563 
z
" transform="scale(0.015625)"/>
       </defs>
       <use xlink:href="#DejaVuSans-19"/>
       <use xlink:href="#DejaVuSans-13" transform="translate(63.625 0)"/>
      </g>
     </g>
    </g>
    <g id="xtick_5">
     <g id="line2d_5">
      <g>
       <use xlink:href="#m47be9648e9" x="457.288469" y="317.877656" style="stroke: #000000; stroke-width: 0.8"/>
      </g>
     </g>
     <g id="text_5">
      <!-- 80 -->
      <g transform="translate(450.925969 332.475312) scale(0.1 -0.1)">
       <defs>
        <path id="DejaVuSans-1b" d="M 2034 2216 
Q 1584 2216 1326 1975 
Q 1069 1734 1069 1313 
Q 1069 891 1326 650 
Q 1584 409 2034 409 
Q 2484 409 2743 651 
Q 3003 894 3003 1313 
Q 3003 1734 2745 1975 
Q 2488 2216 2034 2216 
z
M 1403 2484 
Q 997 2584 770 2862 
Q 544 3141 544 3541 
Q 544 4100 942 4425 
Q 1341 4750 2034 4750 
Q 2731 4750 3128 4425 
Q 3525 4100 3525 3541 
Q 3525 3141 3298 2862 
Q 3072 2584 2669 2484 
Q 3125 2378 3379 2068 
Q 3634 1759 3634 1313 
Q 3634 634 3220 271 
Q 2806 -91 2034 -91 
Q 1263 -91 848 271 
Q 434 634 434 1313 
Q 434 1759 690 2068 
Q 947 2378 1403 2484 
z
M 1172 3481 
Q 1172 3119 1398 2916 
Q 1625 2713 2034 2713 
Q 2441 2713 2670 2916 
Q 2900 3119 2900 3481 
Q 2900 3844 2670 4047 
Q 2441 4250 2034 4250 
Q 1625 4250 1398 4047 
Q 1172 3844 1172 3481 
z
" transform="scale(0.015625)"/>
       </defs>
       <use xlink:href="#DejaVuSans-1b"/>
       <use xlink:href="#DejaVuSans-13" transform="translate(63.625 0)"/>
      </g>
     </g>
    </g>
    <g id="xtick_6">
     <g id="line2d_6">
      <g>
       <use xlink:href="#m47be9648e9" x="555.48" y="317.877656" style="stroke: #000000; stroke-width: 0.8"/>
      </g>
     </g>
     <g id="text_6">
      <!-- 100 -->
      <g transform="translate(545.93625 332.475312) scale(0.1 -0.1)">
       <defs>
        <path id="DejaVuSans-14" d="M 794 531 
L 1825 531 
L 1825 4091 
L 703 3866 
L 703 4441 
L 1819 4666 
L 2450 4666 
L 2450 531 
L 3481 531 
L 3481 0 
L 794 0 
L 794 531 
z
" transform="scale(0.015625)"/>
       </defs>
       <use xlink:href="#DejaVuSans-14"/>
       <use xlink:href="#DejaVuSans-13" transform="translate(63.625 0)"/>
       <use xlink:href="#DejaVuSans-13" transform="translate(127.25 0)"/>
      </g>
     </g>
    </g>
    <g id="text_7">
     <!-- Duration exceeded (%) -->
     <g transform="translate(252.266797 346.476094) scale(0.1 -0.1)">
      <defs>
       <path id="DejaVuSans-27" d="M 1259 4147 
L 1259 519 
L 2022 519 
Q 2988 519 3436 956 
Q 3884 1394 3884 2338 
Q 3884 3275 3436 3711 
Q 2988 4147 2022 4147 
L 1259 4147 
z
M 628 4666 
L 1925 4666 
Q 3281 4666 3915 4102 
Q 4550 3538 4550 2338 
Q 4550 1131 3912 565 
Q 3275 0 1925 0 
L 628 0 
L 628 4666 
z
" transform="scale(0.015625)"/>
       <path id="DejaVuSans-58" d="M 544 1381 
L 544 3500 
L 1119 3500 
L 1119 1403 
Q 1119 906 1312 657 
Q 1506 409 1894 409 
Q 2359 409 2629 706 
Q 2900 1003 2900 1516 
L 2900 3500 
L 3475 3500 
L 3475 0 
L 2900 0 
L 2900 538 
Q 2691 219 2414 64 
Q 2138 -91 1772 -91 
Q 1169 -91 856 284 
Q 544 659 544 1381 
z
M 1991 3584 
L 1991 3584 
z
" transform="scale(0.015625)"/>
       <path id="DejaVuSans-55" d="M 2631 2963 
Q 2534 3019 2420 3045 
Q 2306 3072 2169 3072 
Q 1681 3072 1420 2755 
Q 1159 2438 1159 1844 
L 1159 0 
L 581 0 
L 581 3500 
L 1159 3500 
L 1159 2956 
Q 1341 3275 1631 3429 
Q 1922 3584 2338 3584 
Q 2397 3584 2469 3576 
Q 2541 3569 2628 3553 
L 2631 2963 
z
" transform="scale(0.015625)"/>
       <path id="DejaVuSans-44" d="M 2194 1759 
Q 1497 1759 1228 1600 
Q 959 1441 959 1056 
Q 959 750 1161 570 
Q 1363 391 1709 391 
Q 2188 391 2477 730 
Q 2766 1069 2766 1631 
L 2766 1759 
L 2194 1759 
z
M 3341 1997 
L 3341 0 
L 2766 0 
L 2766 531 
Q 2569 213 2275 61 
Q 1981 -91 1556 -91 
Q 1019 -91 701 211 
Q 384 513 384 1019 
Q 384 1609 779 1909 
Q 1175 2209 1959 2209 
L 2766 2209 
L 2766 2266 
Q 2766 2663 2505 2880 
Q 2244 3097 1772 3097 
Q 1472 3097 1187 3025 
Q 903 2953 641 2809 
L 641 3341 
Q 956 3463 1253 3523 
Q 1550 3584 1831 3584 
Q 2591 3584 2966 3190 
Q 3341 2797 3341 1997 
z
" transform="scale(0.015625)"/>
       <path id="DejaVuSans-57" d="M 1172 4494 
L 1172 3500 
L 2356 3500 
L 2356 3053 
L 1172 3053 
L 1172 1153 
Q 1172 725 1289 603 
Q 1406 481 1766 481 
L 2356 481 
L 2356 0 
L 1766 0 
Q 1100 0 847 248 
Q 594 497 594 1153 
L 594 3053 
L 172 3053 
L 172 3500 
L 594 3500 
L 594 4494 
L 1172 4494 
z
" transform="scale(0.015625)"/>
       <path id="DejaVuSans-4c" d="M 603 3500 
L 1178 3500 
L 1178 0 
L 603 0 
L 603 3500 
z
M 603 4863 
L 1178 4863 
L 1178 4134 
L 603 4134 
L 603 4863 
z
" transform="scale(0.015625)"/>
       <path id="DejaVuSans-52" d="M 1959 3097 
Q 1497 3097 1228 2736 
Q 959 2375 959 1747 
Q 959 1119 1226 758 
Q 1494 397 1959 397 
Q 2419 397 2687 759 
Q 2956 1122 2956 1747 
Q 2956 2369 2687 2733 
Q 2419 3097 1959 3097 
z
M 1959 3584 
Q 2709 3584 3137 3096 
Q 3566 2609 3566 1747 
Q 3566 888 3137 398 
Q 2709 -91 1959 -91 
Q 1206 -91 779 398 
Q 353 888 353 1747 
Q 353 2609 779 3096 
Q 1206 3584 1959 3584 
z
" transform="scale(0.015625)"/>
       <path id="DejaVuSans-51" d="M 3513 2113 
L 3513 0 
L 2938 0 
L 2938 2094 
Q 2938 2591 2744 2837 
Q 2550 3084 2163 3084 
Q 1697 3084 1428 2787 
Q 1159 2491 1159 1978 
L 1159 0 
L 581 0 
L 581 3500 
L 1159 3500 
L 1159 2956 
Q 1366 3272 1645 3428 
Q 1925 3584 2291 3584 
Q 2894 3584 3203 3211 
Q 3513 2838 3513 2113 
z
" transform="scale(0.015625)"/>
       <path id="DejaVuSans-3" transform="scale(0.015625)"/>
       <path id="DejaVuSans-48" d="M 3597 1894 
L 3597 1613 
L 953 1613 
Q 991 1019 1311 708 
Q 1631 397 2203 397 
Q 2534 397 2845 478 
Q 3156 559 3463 722 
L 3463 178 
Q 3153 47 2828 -22 
Q 2503 -91 2169 -91 
Q 1331 -91 842 396 
Q 353 884 353 1716 
Q 353 2575 817 3079 
Q 1281 3584 2069 3584 
Q 2775 3584 3186 3129 
Q 3597 2675 3597 1894 
z
M 3022 2063 
Q 3016 2534 2758 2815 
Q 2500 3097 2075 3097 
Q 1594 3097 1305 2825 
Q 1016 2553 972 2059 
L 3022 2063 
z
" transform="scale(0.015625)"/>
       <path id="DejaVuSans-5b" d="M 3513 3500 
L 2247 1797 
L 3578 0 
L 2900 0 
L 1881 1375 
L 863 0 
L 184 0 
L 1544 1831 
L 300 3500 
L 978 3500 
L 1906 2253 
L 2834 3500 
L 3513 3500 
z
" transform="scale(0.015625)"/>
       <path id="DejaVuSans-46" d="M 3122 3366 
L 3122 2828 
Q 2878 2963 2633 3030 
Q 2388 3097 2138 3097 
Q 1578 3097 1268 2742 
Q 959 2388 959 1747 
Q 959 1106 1268 751 
Q 1578 397 2138 397 
Q 2388 397 2633 464 
Q 2878 531 3122 666 
L 3122 134 
Q 2881 22 2623 -34 
Q 2366 -91 2075 -91 
Q 1284 -91 818 406 
Q 353 903 353 1747 
Q 353 2603 823 3093 
Q 1294 3584 2113 3584 
Q 2378 3584 2631 3529 
Q 2884 3475 3122 3366 
z
" transform="scale(0.015625)"/>
       <path id="DejaVuSans-47" d="M 2906 2969 
L 2906 4863 
L 3481 4863 
L 3481 0 
L 2906 0 
L 2906 525 
Q 2725 213 2448 61 
Q 2172 -91 1784 -91 
Q 1150 -91 751 415 
Q 353 922 353 1747 
Q 353 2572 751 3078 
Q 1150 3584 1784 3584 
Q 2172 3584 2448 3432 
Q 2725 3281 2906 2969 
z
M 947 1747 
Q 947 1113 1208 752 
Q 1469 391 1925 391 
Q 2381 391 2643 752 
Q 2906 1113 2906 1747 
Q 2906 2381 2643 2742 
Q 2381 3103 1925 3103 
Q 1469 3103 1208 2742 
Q 947 2381 947 1747 
z
" transform="scale(0.015625)"/>
       <path id="DejaVuSans-b" d="M 1984 4856 
Q 1566 4138 1362 3434 
Q 1159 2731 1159 2009 
Q 1159 1288 1364 580 
Q 1569 -128 1984 -844 
L 1484 -844 
Q 1016 -109 783 600 
Q 550 1309 550 2009 
Q 550 2706 781 3412 
Q 1013 4119 1484 4856 
L 1984 4856 
z
" transform="scale(0.015625)"/>
       <path id="DejaVuSans-8" d="M 4653 2053 
Q 4381 2053 4226 1822 
Q 4072 1591 4072 1178 
Q 4072 772 4226 539 
Q 4381 306 4653 306 
Q 4919 306 5073 539 
Q 5228 772 5228 1178 
Q 5228 1588 5073 1820 
Q 4919 2053 4653 2053 
z
M 4653 2450 
Q 5147 2450 5437 2106 
Q 5728 1763 5728 1178 
Q 5728 594 5436 251 
Q 5144 -91 4653 -91 
Q 4153 -91 3862 251 
Q 3572 594 3572 1178 
Q 3572 1766 3864 2108 
Q 4156 2450 4653 2450 
z
M 1428 4353 
Q 1159 4353 1004 4120 
Q 850 3888 850 3481 
Q 850 3069 1003 2837 
Q 1156 2606 1428 2606 
Q 1700 2606 1854 2837 
Q 2009 3069 2009 3481 
Q 2009 3884 1853 4118 
Q 1697 4353 1428 4353 
z
M 4250 4750 
L 4750 4750 
L 1831 -91 
L 1331 -91 
L 4250 4750 
z
M 1428 4750 
Q 1922 4750 2215 4408 
Q 2509 4066 2509 3481 
Q 2509 2891 2217 2550 
Q 1925 2209 1428 2209 
Q 931 2209 642 2551 
Q 353 2894 353 3481 
Q 353 4063 643 4406 
Q 934 4750 1428 4750 
z
" transform="scale(0.015625)"/>
       <path id="DejaVuSans-c" d="M 513 4856 
L 1013 4856 
Q 1481 4119 1714 3412 
Q 1947 2706 1947 2009 
Q 1947 1309 1714 600 
Q 1481 -109 1013 -844 
L 513 -844 
Q 928 -128 1133 580 
Q 1338 1288 1338 2009 
Q 1338 2731 1133 3434 
Q 928 4138 513 4856 
z
" transform="scale(0.015625)"/>
      </defs>
      <use xlink:href="#DejaVuSans-27"/>
      <use xlink:href="#DejaVuSans-58" transform="translate(77 0)"/>
      <use xlink:href="#DejaVuSans-55" transform="translate(140.375 0)"/>
      <use xlink:href="#DejaVuSans-44" transform="translate(181.484375 0)"/>
      <use xlink:href="#DejaVuSans-57" transform="translate(242.765625 0)"/>
      <use xlink:href="#DejaVuSans-4c" transform="translate(281.96875 0)"/>
      <use xlink:href="#DejaVuSans-52" transform="translate(309.75 0)"/>
      <use xlink:href="#DejaVuSans-51" transform="translate(370.9375 0)"/>
      <use xlink:href="#DejaVuSans-3" transform="translate(434.3125 0)"/>
      <use xlink:href="#DejaVuSans-48" transform="translate(466.09375 0)"/>
      <use xlink:href="#DejaVuSans-5b" transform="translate(525.875 0)"/>
      <use xlink:href="#DejaVuSans-46" transform="translate(583.3125 0)"/>
      <use xlink:href="#DejaVuSans-48" transform="translate(638.296875 0)"/>
      <use xlink:href="#DejaVuSans-48" transform="translate(699.828125 0)"/>
      <use xlink:href="#DejaVuSans-47" transform="translate(761.359375 0)"/>
      <use xlink:href="#DejaVuSans-48" transform="translate(824.84375 0)"/>
      <use xlink:href="#DejaVuSans-47" transform="translate(886.375 0)"/>
      <use xlink:href="#DejaVuSans-3" transform="translate(949.859375 0)"/>
      <use xlink:href="#DejaVuSans-b" transform="translate(981.640625 0)"/>
      <use xlink:href="#DejaVuSans-8" transform="translate(1020.65625 0)"/>
      <use xlink:href="#DejaVuSans-c" transform="translate(1115.671875 0)"/>
     </g>
    </g>
   </g>
   <g id="matplotlib.axis_2">
    <g id="ytick_1">
     <g id="line2d_7">
      <defs>
       <path id="m57106fee60" d="M 0 0 
L -3.5 0 
" style="stroke: #000000; stroke-width: 0.8"/>
      </defs>
      <g>
       <use xlink:href="#m57106fee60" x="64.522344" y="289.143745" style="stroke: #000000; stroke-width: 0.8"/>
      </g>
     </g>
     <g id="text_8">
      <!-- 2000 -->
      <g transform="translate(32.072344 292.942573) scale(0.1 -0.1)">
       <use xlink:href="#DejaVuSans-15"/>
       <use xlink:href="#DejaVuSans-13" transform="translate(63.625 0)"/>
       <use xlink:href="#DejaVuSans-13" transform="translate(127.25 0)"/>
       <use xlink:href="#DejaVuSans-13" transform="translate(190.875 0)"/>
      </g>
     </g>
    </g>
    <g id="ytick_2">
     <g id="line2d_8">
      <g>
       <use xlink:href="#m57106fee60" x="64.522344" y="243.439083" style="stroke: #000000; stroke-width: 0.8"/>
      </g>
     </g>
     <g id="text_9">
      <!-- 4000 -->
      <g transform="translate(32.072344 247.237911) scale(0.1 -0.1)">
       <use xlink:href="#DejaVuSans-17"/>
       <use xlink:href="#DejaVuSans-13" transform="translate(63.625 0)"/>
       <use xlink:href="#DejaVuSans-13" transform="translate(127.25 0)"/>
       <use xlink:href="#DejaVuSans-13" transform="translate(190.875 0)"/>
      </g>
     </g>
    </g>
    <g id="ytick_3">
     <g id="line2d_9">
      <g>
       <use xlink:href="#m57106fee60" x="64.522344" y="197.734421" style="stroke: #000000; stroke-width: 0.8"/>
      </g>
     </g>
     <g id="text_10">
      <!-- 6000 -->
      <g transform="translate(32.072344 201.533249) scale(0.1 -0.1)">
       <use xlink:href="#DejaVuSans-19"/>
       <use xlink:href="#DejaVuSans-13" transform="translate(63.625 0)"/>
       <use xlink:href="#DejaVuSans-13" transform="translate(127.25 0)"/>
       <use xlink:href="#DejaVuSans-13" transform="translate(190.875 0)"/>
      </g>
     </g>
    </g>
    <g id="ytick_4">
     <g id="line2d_10">
      <g>
       <use xlink:href="#m57106fee60" x="64.522344" y="152.029759" style="stroke: #000000; stroke-width: 0.8"/>
      </g>
     </g>
     <g id="text_11">
      <!-- 8000 -->
      <g transform="translate(32.072344 155.828588) scale(0.1 -0.1)">
       <use xlink:href="#DejaVuSans-1b"/>
       <use xlink:href="#DejaVuSans-13" transform="translate(63.625 0)"/>
       <use xlink:href="#DejaVuSans-13" transform="translate(127.25 0)"/>
       <use xlink:href="#DejaVuSans-13" transform="translate(190.875 0)"/>
      </g>
     </g>
    </g>
    <g id="ytick_5">
     <g id="line2d_11">
      <g>
       <use xlink:href="#m57106fee60" x="64.522344" y="106.325097" style="stroke: #000000; stroke-width: 0.8"/>
      </g>
     </g>
     <g id="text_12">
      <!-- 10000 -->
      <g transform="translate(25.709844 110.123926) scale(0.1 -0.1)">
       <use xlink:href="#DejaVuSans-14"/>
       <use xlink:href="#DejaVuSans-13" transform="translate(63.625 0)"/>
       <use xlink:href="#DejaVuSans-13" transform="translate(127.25 0)"/>
       <use xlink:href="#DejaVuSans-13" transform="translate(190.875 0)"/>
       <use xlink:href="#DejaVuSans-13" transform="translate(254.5 0)"/>
      </g>
     </g>
    </g>
    <g id="ytick_6">
     <g id="line2d_12">
      <g>
       <use xlink:href="#m57106fee60" x="64.522344" y="60.620436" style="stroke: #000000; stroke-width: 0.8"/>
      </g>
     </g>
     <g id="text_13">
      <!-- 12000 -->
      <g transform="translate(25.709844 64.419264) scale(0.1 -0.1)">
       <use xlink:href="#DejaVuSans-14"/>
       <use xlink:href="#DejaVuSans-15" transform="translate(63.625 0)"/>
       <use xlink:href="#DejaVuSans-13" transform="translate(127.25 0)"/>
       <use xlink:href="#DejaVuSans-13" transform="translate(190.875 0)"/>
       <use xlink:href="#DejaVuSans-13" transform="translate(254.5 0)"/>
      </g>
     </g>
    </g>
    <g id="ytick_7">
     <g id="line2d_13">
      <g>
       <use xlink:href="#m57106fee60" x="64.522344" y="14.915774" style="stroke: #000000; stroke-width: 0.8"/>
      </g>
     </g>
     <g id="text_14">
      <!-- 14000 -->
      <g transform="translate(25.709844 18.714602) scale(0.1 -0.1)">
       <use xlink:href="#DejaVuSans-14"/>
       <use xlink:href="#DejaVuSans-17" transform="translate(63.625 0)"/>
       <use xlink:href="#DejaVuSans-13" transform="translate(127.25 0)"/>
       <use xlink:href="#DejaVuSans-13" transform="translate(190.875 0)"/>
       <use xlink:href="#DejaVuSans-13" transform="translate(254.5 0)"/>
      </g>
     </g>
    </g>
    <g id="text_15">
     <!-- Load (MW) -->
     <g transform="translate(19.3075 191.473103) rotate(-90) scale(0.1 -0.1)">
      <defs>
       <path id="DejaVuSans-2f" d="M 628 4666 
L 1259 4666 
L 1259 531 
L 3531 531 
L 3531 0 
L 628 0 
L 628 4666 
z
" transform="scale(0.015625)"/>
       <path id="DejaVuSans-30" d="M 628 4666 
L 1569 4666 
L 2759 1491 
L 3956 4666 
L 4897 4666 
L 4897 0 
L 4281 0 
L 4281 4097 
L 3078 897 
L 2444 897 
L 1241 4097 
L 1241 0 
L 628 0 
L 628 4666 
z
" transform="scale(0.015625)"/>
       <path id="DejaVuSans-3a" d="M 213 4666 
L 850 4666 
L 1831 722 
L 2809 4666 
L 3519 4666 
L 4500 722 
L 5478 4666 
L 6119 4666 
L 4947 0 
L 4153 0 
L 3169 4050 
L 2175 0 
L 1381 0 
L 213 4666 
z
" transform="scale(0.015625)"/>
      </defs>
      <use xlink:href="#DejaVuSans-2f"/>
      <use xlink:href="#DejaVuSans-52" transform="translate(53.96875 0)"/>
      <use xlink:href="#DejaVuSans-44" transform="translate(115.15625 0)"/>
      <use xlink:href="#DejaVuSans-47" transform="translate(176.4375 0)"/>
      <use xlink:href="#DejaVuSans-3" transform="translate(239.921875 0)"/>
      <use xlink:href="#DejaVuSans-b" transform="translate(271.703125 0)"/>
      <use xlink:href="#DejaVuSans-30" transform="translate(310.71875 0)"/>
      <use xlink:href="#DejaVuSans-3a" transform="translate(397 0)"/>
      <use xlink:href="#DejaVuSans-c" transform="translate(495.875 0)"/>
     </g>
    </g>
   </g>
   <g id="line2d_14">
    <path d="M 64.522344 53.836708 
L 65.335025 60.934927 
L 66.9744 63.402014 
L 69.426456 66.163983 
L 70.253149 67.007405 
L 71.06583 67.655568 
L 72.705205 69.204614 
L 74.344579 70.719616 
L 75.171273 71.506436 
L 77.623329 73.305329 
L 79.262703 75.032729 
L 80.902078 76.119101 
L 85.00752 79.402744 
L 86.646895 80.593986 
L 88.286269 81.90726 
L 91.565018 84.194108 
L 92.3777 84.648919 
L 94.017074 85.883245 
L 96.483142 88.114669 
L 97.295824 88.928718 
L 98.935198 90.236079 
L 103.853322 94.06807 
L 110.41082 98.39451 
L 114.516262 100.728383 
L 116.968318 102.116211 
L 118.607693 103.141247 
L 119.434386 103.487737 
L 122.713135 105.572769 
L 123.525817 106.071437 
L 125.165191 106.87863 
L 135.001439 112.405118 
L 137.467507 113.791426 
L 139.919563 115.191531 
L 149.75581 120.229805 
L 151.395185 120.962187 
L 154.673934 122.549197 
L 165.322863 126.622831 
L 170.240986 128.09117 
L 174.346429 129.458497 
L 181.716608 131.717065 
L 183.355983 132.086352 
L 211.225351 139.766984 
L 215.330793 140.744242 
L 217.782849 141.25872 
L 221.888291 142.308713 
L 225.16704 143.252316 
L 231.724539 144.982457 
L 233.363913 145.377795 
L 239.094719 146.960905 
L 243.200161 147.903156 
L 244.839535 148.399939 
L 248.118285 149.388423 
L 250.570341 150.107113 
L 253.84909 151.105303 
L 255.488464 151.632914 
L 262.045963 153.44135 
L 267.776768 155.112717 
L 269.416142 155.535886 
L 289.088637 161.613173 
L 291.554705 162.434883 
L 294.833454 163.374831 
L 312.866574 168.518769 
L 315.31863 169.26631 
L 323.515503 171.70759 
L 325.154878 172.151552 
L 327.620946 172.920621 
L 334.178444 174.885401 
L 353.850939 180.677962 
L 355.490313 181.120799 
L 371.057366 185.723555 
L 373.509422 186.433836 
L 383.345669 189.42019 
L 387.451112 190.672308 
L 389.903168 191.446767 
L 391.542542 191.946183 
L 402.205483 195.356732 
L 406.296914 196.795498 
L 414.493786 199.781927 
L 416.133161 200.484753 
L 417.772536 201.106908 
L 421.051285 202.175004 
L 440.72378 208.961278 
L 442.363154 209.421404 
L 450.560027 212.209263 
L 466.12708 217.076498 
L 470.232522 218.162142 
L 471.871897 218.659833 
L 479.242076 220.570634 
L 480.881451 221.123815 
L 482.520825 221.596599 
L 492.357073 225.245203 
L 493.996448 225.898273 
L 495.635822 226.6557 
L 508.750819 232.341025 
L 510.390193 233.284742 
L 513.668942 235.369776 
L 516.13501 237.288611 
L 520.226441 240.409421 
L 521.053134 241.218372 
L 521.865815 241.843136 
L 524.331883 244.159147 
L 527.610632 246.886526 
L 528.423314 247.719396 
L 530.062688 249.665173 
L 530.889381 250.580522 
L 531.702063 252.140883 
L 533.341437 254.49911 
L 534.168131 256.023379 
L 534.980812 257.27164 
L 536.620186 261.610232 
L 538.259561 264.715462 
L 539.086254 266.535114 
L 539.898936 268.708581 
L 543.177685 275.53541 
L 544.817059 279.149552 
L 545.643753 281.639511 
L 546.456434 283.19011 
L 547.283127 284.184261 
L 549.735183 289.268305 
L 550.561876 291.308467 
L 553.840625 298.420842 
L 554.653307 301.820507 
L 555.48 303.955012 
L 555.48 303.955012 
" clip-path="url(#pa005431129)" style="fill: none; stroke: #1f77b4; stroke-width: 1.5; stroke-linecap: square"/>
   </g>
   <g id="line2d_15">
    <path d="M 64.522344 25.502131 
L 65.335025 33.479632 
L 66.147707 37.742318 
L 67.787081 42.063364 
L 69.426456 44.712746 
L 71.892523 47.721906 
L 73.531898 49.238966 
L 77.623329 52.989846 
L 78.450022 53.935504 
L 79.262703 54.621787 
L 80.089396 55.717395 
L 82.541452 58.136256 
L 83.368146 59.22587 
L 89.098951 64.110329 
L 90.738325 65.333657 
L 92.3777 66.655827 
L 94.017074 67.601918 
L 100.574573 71.777389 
L 102.213947 72.616888 
L 103.04064 73.122785 
L 104.680015 73.944708 
L 106.31939 74.967064 
L 110.41082 77.31778 
L 111.237513 77.796096 
L 112.876888 78.94513 
L 120.247068 83.232732 
L 121.886442 84.214065 
L 125.165191 86.089322 
L 127.631259 87.649871 
L 132.549383 90.471155 
L 135.001439 91.801743 
L 139.106881 94.217987 
L 139.919563 94.800642 
L 143.198312 96.641414 
L 145.664379 98.242118 
L 150.582503 100.950577 
L 159.592057 106.0175 
L 171.880361 111.816101 
L 172.707054 112.470344 
L 173.519735 112.860275 
L 175.15911 113.908239 
L 180.903927 117.232994 
L 183.355983 118.537736 
L 189.1008 121.294922 
L 191.552856 122.447485 
L 197.297673 124.740468 
L 207.946602 129.251167 
L 212.864725 130.714065 
L 215.330793 131.465309 
L 216.143474 131.681003 
L 217.782849 132.325548 
L 221.061598 133.329202 
L 222.700973 133.884235 
L 238.282037 137.973657 
L 243.200161 139.124165 
L 246.47891 139.961997 
L 251.397034 141.131556 
L 252.209715 141.410263 
L 257.127839 142.442165 
L 260.406588 143.275995 
L 266.964086 144.689558 
L 271.055517 145.547893 
L 286.636581 149.080762 
L 294.833454 150.984528 
L 300.564259 152.167484 
L 302.203634 152.550554 
L 307.121758 153.604493 
L 312.866574 154.874752 
L 318.59738 156.069896 
L 321.063447 156.675259 
L 323.515503 157.236681 
L 325.981571 157.874538 
L 339.909249 161.197278 
L 341.548624 161.637811 
L 353.850939 164.726557 
L 360.394425 166.516414 
L 364.499868 167.559453 
L 366.951924 168.207106 
L 371.870047 169.731244 
L 379.254239 171.883335 
L 380.893613 172.451673 
L 396.460666 177.72327 
L 398.100041 178.413383 
L 405.484232 181.416623 
L 416.959854 186.715984 
L 418.599229 187.430429 
L 419.41191 187.874607 
L 420.238603 188.135468 
L 422.690659 189.478926 
L 434.166281 195.690924 
L 434.992975 196.101993 
L 438.271724 198.148978 
L 439.911098 198.920874 
L 440.72378 199.47262 
L 442.363154 200.213495 
L 444.002529 201.007289 
L 447.281278 202.813749 
L 449.747346 204.082169 
L 451.38672 204.908801 
L 453.026095 205.670231 
L 458.7569 208.398669 
L 463.675024 210.538475 
L 467.766454 212.461896 
L 471.045203 213.889132 
L 474.323953 215.373123 
L 475.963327 216.024857 
L 480.068769 217.801055 
L 481.708144 218.517623 
L 484.1602 219.417476 
L 484.986893 219.839879 
L 486.626268 220.424137 
L 495.635822 224.187984 
L 497.275197 224.744133 
L 498.914571 225.441477 
L 503.020014 226.93533 
L 505.47207 227.738 
L 510.390193 229.414361 
L 516.13501 231.472904 
L 516.947692 231.929098 
L 519.413759 232.835165 
L 521.865815 234.027829 
L 527.610632 236.87748 
L 529.250007 237.983253 
L 531.702063 239.667322 
L 533.341437 240.948148 
L 534.980812 242.14228 
L 535.807505 243.025499 
L 536.620186 244.254292 
L 539.086254 247.000942 
L 540.725629 249.227928 
L 542.365003 252.053117 
L 543.177685 253.383009 
L 544.004378 255.368336 
L 546.456434 260.043299 
L 548.095809 264.097072 
L 549.735183 268.229625 
L 551.374558 273.023751 
L 552.201251 275.773548 
L 553.840625 282.533389 
L 555.48 289.140717 
L 555.48 289.140717 
" clip-path="url(#pa005431129)" style="fill: none; stroke: #ff7f0e; stroke-width: 1.5; stroke-linecap: square"/>
   </g>
   <g id="patch_3">
    <path d="M 64.522344 317.877656 
L 64.522344 11.579487 
" style="fill: none; stroke: #000000; stroke-width: 0.8; stroke-linejoin: miter; stroke-linecap: square"/>
   </g>
   <g id="patch_4">
    <path d="M 555.48 317.877656 
L 555.48 11.579487 
" style="fill: none; stroke: #000000; stroke-width: 0.8; stroke-linejoin: miter; stroke-linecap: square"/>
   </g>
   <g id="patch_5">
    <path d="M 64.522344 317.877656 
L 555.48 317.877656 
" style="fill: none; stroke: #000000; stroke-width: 0.8; stroke-linejoin: miter; stroke-linecap: square"/>
   </g>
   <g id="patch_6">
    <path d="M 64.522344 11.579487 
L 555.48 11.579487 
" style="fill: none; stroke: #000000; stroke-width: 0.8; stroke-linejoin: miter; stroke-linecap: square"/>
   </g>
   <g id="legend_1">
    <g id="patch_7">
     <path d="M 483.926875 49.58105 
L 548.48 49.58105 
Q 550.48 49.58105 550.48 47.58105 
L 550.48 18.579487 
Q 550.48 16.579487 548.48 16.579487 
L 483.926875 16.579487 
Q 481.926875 16.579487 481.926875 18.579487 
L 481.926875 47.58105 
Q 481.926875 49.58105 483.926875 49.58105 
z
" style="fill: #ffffff; opacity: 0.8; stroke: #cccccc; stroke-linejoin: miter"/>
    </g>
    <g id="line2d_16">
     <path d="M 485.926875 24.677925 
L 495.926875 24.677925 
L 505.926875 24.677925 
" style="fill: none; stroke: #1f77b4; stroke-width: 1.5; stroke-linecap: square"/>
    </g>
    <g id="text_16">
     <!-- Area 1 -->
     <g transform="translate(513.926875 28.177925) scale(0.1 -0.1)">
      <defs>
       <path id="DejaVuSans-24" d="M 2188 4044 
L 1331 1722 
L 3047 1722 
L 2188 4044 
z
M 1831 4666 
L 2547 4666 
L 4325 0 
L 3669 0 
L 3244 1197 
L 1141 1197 
L 716 0 
L 50 0 
L 1831 4666 
z
" transform="scale(0.015625)"/>
      </defs>
      <use xlink:href="#DejaVuSans-24"/>
      <use xlink:href="#DejaVuSans-55" transform="translate(68.40625 0)"/>
      <use xlink:href="#DejaVuSans-48" transform="translate(107.3125 0)"/>
      <use xlink:href="#DejaVuSans-44" transform="translate(168.84375 0)"/>
      <use xlink:href="#DejaVuSans-3" transform="translate(230.125 0)"/>
      <use xlink:href="#DejaVuSans-14" transform="translate(261.90625 0)"/>
     </g>
    </g>
    <g id="line2d_17">
     <path d="M 485.926875 39.678706 
L 495.926875 39.678706 
L 505.926875 39.678706 
" style="fill: none; stroke: #ff7f0e; stroke-width: 1.5; stroke-linecap: square"/>
    </g>
    <g id="text_17">
     <!-- Area 2 -->
     <g transform="translate(513.926875 43.178706) scale(0.1 -0.1)">
      <use xlink:href="#DejaVuSans-24"/>
      <use xlink:href="#DejaVuSans-55" transform="translate(68.40625 0)"/>
      <use xlink:href="#DejaVuSans-48" transform="translate(107.3125 0)"/>
      <use xlink:href="#DejaVuSans-44" transform="translate(168.84375 0)"/>
      <use xlink:href="#DejaVuSans-3" transform="translate(230.125 0)"/>
      <use xlink:href="#DejaVuSans-15" transform="translate(261.90625 0)"/>
     </g>
    </g>
   </g>
  </g>
 </g>
 <defs>
  <clipPath id="pa005431129">
   <rect x="64.522344" y="11.579487" width="490.957656" height="306.298169"/>
  </clipPath>
 </defs>
</svg>
